<?xml version="1.0" encoding="UTF-8" standalone="no"?>
<svg width="600" height="600" viewBox="0 0 600 600" xmlns="http://www.w3.org/2000/svg">
  <!-- Fundo circular suave - mais compacto -->
  <circle cx="300" cy="300" r="240" fill="#f8f9fa"/>
  
  <!-- Grupo principal centralizado -->
  <g transform="translate(0, 30)">
    <!-- Linha de batimento cardíaco central -->
    <g transform="translate(150, 140) scale(0.9)">
      <path d="M0,100 L50,100 
                C60,100 65,50 80,70 
                C95,90 100,110 110,90 
                C120,70 125,50 140,70 
                C155,90 160,110 170,90 
                C180,70 185,50 200,50 
                C215,50 220,70 230,90 
                C240,110 245,90 260,70 
                C275,50 280,70 290,100 L340,100" 
          fill="none" stroke="#3498db" stroke-width="14" stroke-linecap="round" stroke-linejoin="round"/>
      
      <!-- Elementos de destaque -->
      <circle cx="170" cy="50" r="15" fill="#e74c3c"/>
      <circle cx="200" cy="50" r="15" fill="#f39c12"/>
      <circle cx="230" cy="50" r="15" fill="#2ecc71"/>
    </g>
    
    <!-- Texto principal -->
    <g transform="translate(0, 260)">
      <text x="300" y="80" font-family="'Segoe UI', Arial, sans-serif" font-size="48" font-weight="700" text-anchor="middle" fill="#2c3e50" letter-spacing="1">SmartCare</text>
      <text x="300" y="120" font-family="'Segoe UI', Arial, sans-serif" font-size="32" font-weight="300" text-anchor="middle" fill="#7f8c8d" letter-spacing="2">INSIGHT</text>
      <line x1="200" y1="90" x2="400" y2="90" stroke="#e9ecef" stroke-width="2"/>
    </g>
    
    <!-- Tagline -->
    <text x="300" y="160" font-family="'Segoe UI', Arial, sans-serif" font-size="20" font-weight="300" text-anchor="middle" fill="#7f8c8d" font-style="italic">Intelligent Health Monitoring</text>
  </g>
</svg>
